<?xml version="1.0" standalone="no"?>
<!DOCTYPE svg PUBLIC "-//W3C//DTD SVG 20010904//EN"
 "http://www.w3.org/TR/2001/REC-SVG-20010904/DTD/svg10.dtd">
<svg version="1.0" xmlns="http://www.w3.org/2000/svg"
 width="300.000000pt" height="300.000000pt" viewBox="0 0 300.000000 300.000000"
 preserveAspectRatio="xMidYMid meet">
<metadata>
Created by potrace 1.10, written by Peter Selinger 2001-2011
</metadata>
<g transform="translate(0.000000,300.000000) scale(0.100000,-0.100000)"
fill="currentColor" stroke="none">
<path d="M1085 2306 c-16 -7 -41 -26 -55 -41 l-25 -27 -3 -328 c-3 -366 -1
-383 60 -420 32 -19 49 -20 510 -20 l476 0 31 26 c18 14 36 35 42 46 7 12 10
138 9 355 -1 325 -1 337 -22 366 -40 57 -45 57 -540 57 -355 -1 -459 -4 -483
-14z m566 -166 c1 -191 -13 -180 241 -180 l198 0 0 -75 0 -75 -198 0 c-251 0
-236 10 -239 -169 l-2 -126 -83 -3 -83 -3 0 130 c0 181 15 170 -239 173 l-201
3 0 70 0 70 201 3 c254 3 238 -9 241 181 2 75 3 137 3 139 0 2 36 2 81 0 l80
-3 0 -135z m-201 4 l0 -115 -27 19 c-41 28 -314 182 -324 182 -5 0 -9 7 -9 15
0 13 27 15 180 15 l180 0 0 -116z m608 99 c2 -7 -1 -13 -7 -13 -11 0 -326
-174 -348 -192 -10 -8 -13 14 -13 106 l0 116 182 -2 c134 -2 182 -6 186 -15z
m-983 -32 c3 -5 53 -38 110 -72 58 -34 108 -66 111 -70 3 -5 -45 -10 -105 -11
-61 -1 -119 -2 -128 -2 -15 -1 -19 9 -21 59 -2 32 -1 69 3 82 6 24 19 30 30
14z m1015 -79 l0 -78 -107 4 c-159 4 -155 3 -98 36 28 16 82 48 120 72 39 23
73 42 78 43 4 1 7 -34 7 -77z m-640 -126 c-5 -9 -379 -18 -393 -9 -4 2 -5 9
-1 14 7 12 401 7 394 -5z m630 -2 c0 -14 -23 -15 -192 -13 -106 2 -196 5 -201
7 -4 2 -5 8 -2 13 4 5 91 9 201 9 170 0 194 -2 194 -16z m-630 -353 l0 -131
-172 0 c-149 0 -216 8 -198 23 3 2 86 50 185 105 l180 102 -197 0 c-176 0
-211 4 -193 21 2 3 92 6 200 8 l195 2 0 -130z m630 114 c0 -13 -28 -15 -194
-15 -177 0 -218 5 -199 24 3 3 93 6 200 6 165 0 193 -2 193 -15z m-300 -65
c25 -15 68 -40 96 -55 27 -15 77 -43 112 -62 35 -19 61 -40 59 -47 -2 -7 -59
-12 -180 -14 l-177 -2 0 110 c0 127 -3 125 90 70z m-604 10 c55 0 93 -4 90 -9
-4 -5 -37 -26 -74 -47 -37 -20 -82 -48 -101 -62 -41 -31 -51 -20 -51 59 0 59
6 73 28 64 7 -3 56 -5 108 -5z m914 -70 c0 -78 -6 -83 -52 -44 -17 14 -52 36
-77 49 -25 12 -57 32 -71 44 l-25 20 113 1 112 0 0 -70z"/>
<path d="M700 1200 c0 -66 3 -120 6 -120 59 0 331 -56 439 -91 108 -35 299
-128 362 -176 25 -19 51 -32 59 -29 8 3 53 28 100 56 194 115 440 197 669 225
28 4 62 9 78 11 l27 6 0 120 0 120 -67 -7 c-269 -27 -569 -113 -743 -213 l-65
-38 -65 38 c-184 107 -450 183 -737 213 l-63 6 0 -121z m267 44 c171 -31 341
-88 490 -166 50 -26 99 -48 109 -48 9 0 49 17 88 39 104 56 243 108 390 146
129 32 331 64 342 53 9 -10 12 -122 4 -139 -6 -11 -37 -20 -97 -28 -117 -17
-291 -62 -389 -101 -43 -17 -139 -63 -212 -101 l-133 -69 -72 43 c-190 116
-386 187 -612 222 -146 23 -135 16 -135 94 0 37 3 71 8 75 9 9 108 0 219 -20z"/>
<path d="M700 901 c0 -28 1 -28 68 -34 242 -21 517 -115 710 -244 69 -45 88
-54 101 -45 111 78 268 159 388 200 131 45 352 92 434 92 37 0 39 2 39 30 0
35 2 35 -128 15 -279 -44 -486 -116 -671 -235 l-80 -52 -33 25 c-105 78 -317
176 -473 217 -71 19 -305 60 -341 60 -9 0 -14 -11 -14 -29z"/>
</g>
</svg>
